<svg width="244" height="252" viewBox="0 0 244 252" fill="none" xmlns="http://www.w3.org/2000/svg">
<path d="M128.381 24.2518C124.343 31.2064 131.947 42.9245 124.284 45.3578L124.915 44.7267C129.54 39.0383 119.872 26.9987 124.498 21.3103C125.217 20.4759 125.834 19.5591 126.336 18.5791" fill="#2F2E41"/>
<path d="M166.196 126.281C166.329 125.585 166.307 124.869 166.132 124.182C165.958 123.496 165.635 122.856 165.186 122.307C164.738 121.759 164.174 121.316 163.536 121.009C162.897 120.702 162.199 120.538 161.49 120.53L151.509 91.5386L145.984 98.579L156.537 125.669C156.603 126.859 157.103 127.985 157.943 128.832C158.783 129.679 159.904 130.189 161.095 130.264C162.285 130.34 163.462 129.976 164.402 129.242C165.343 128.508 165.981 127.454 166.196 126.281L166.196 126.281Z" fill="#FFB8B8"/>
<path d="M122.322 56.284C122.322 56.284 122.012 45.7893 131.399 51.8013C140.786 57.8132 161.223 114.131 161.223 114.131L151.053 119.632L127.964 68.0952L122.322 56.284Z" fill="#D9614C"/>
<path d="M150.015 236.155L145.328 238.157L135.372 221.035L142.29 218.079L150.015 236.155Z" fill="#FFB6B6"/>
<path d="M155.96 243.217L152.599 244.653L150.642 241.737L150.462 245.566L141.547 249.375C141.119 249.558 140.645 249.599 140.192 249.493C139.74 249.387 139.333 249.139 139.032 248.785C138.73 248.432 138.55 247.991 138.516 247.528C138.483 247.064 138.599 246.602 138.847 246.209L143.865 238.252L142.494 235.044L150.174 232.292L155.96 243.217Z" fill="#2F2E41"/>
<path d="M76.5378 241.963L71.4469 241.714L69.9834 221.963L77.4979 222.33L76.5378 241.963Z" fill="#FFB6B6"/>
<path d="M78.794 250.914L75.1429 250.735L74.6597 247.257L72.8221 250.622L63.1385 250.149C62.6744 250.126 62.2296 249.956 61.8692 249.662C61.5087 249.369 61.2515 248.968 61.135 248.518C61.0185 248.069 61.0489 247.593 61.2217 247.162C61.3945 246.731 61.7007 246.366 62.0956 246.121L70.0896 241.159L70.2599 237.675L78.37 238.558L78.794 250.914Z" fill="#2F2E41"/>
<path d="M195.774 239.653C196.111 239.665 196.444 239.574 196.727 239.391C197.01 239.207 197.231 238.942 197.358 238.629C197.485 238.317 197.513 237.973 197.438 237.644C197.363 237.315 197.189 237.017 196.939 236.79C196.896 236.625 196.865 236.507 196.822 236.343C197.137 235.52 197.69 234.811 198.411 234.305C199.132 233.799 199.987 233.52 200.868 233.503C201.748 233.486 202.614 233.733 203.353 234.211C204.093 234.689 204.673 235.378 205.018 236.187C207.012 240.733 209.582 245.434 208.374 250.474C216.499 232.824 213.471 210.995 201.073 196.085C197.668 194.252 194.891 190.963 194.139 187.122C195.821 187.674 197.898 186.29 196.621 184.537C196.068 183.867 195.51 183.203 194.957 182.533C201.261 175.692 208.95 186.277 202.028 195.495C204.348 198.348 206.364 201.435 208.042 204.706C207.629 201.22 208.049 197.684 209.269 194.391C210.507 191.322 212.859 188.724 214.927 186.06C217.44 182.815 222.691 184.251 223.072 188.335C220.732 189.129 220.459 192.523 223.149 192.962C222.518 200.572 217.616 207.607 210.804 211.007C213.399 218.073 214.458 225.61 213.91 233.116C215.034 224.339 224.426 222.122 230.971 218.575C231.387 218.303 231.874 218.157 232.371 218.156C232.868 218.156 233.355 218.3 233.772 218.571C234.189 218.842 234.518 219.229 234.719 219.684C234.92 220.139 234.984 220.642 234.904 221.133C233.999 221.511 233.135 221.977 232.323 222.526C231.942 222.787 231.652 223.159 231.491 223.592C231.33 224.024 231.308 224.496 231.426 224.942C231.544 225.388 231.797 225.787 232.151 226.083C232.504 226.38 232.941 226.56 233.401 226.599C230.163 234.835 221.642 240.426 212.837 240.479C212.026 244.163 210.834 247.753 209.281 251.191L196.212 251.315C196.164 251.171 196.12 251.021 196.077 250.877C197.287 250.941 198.501 250.857 199.691 250.627C196.454 246.869 193.961 244.96 195.773 239.653L195.774 239.653Z" fill="#D9614C"/>
<path d="M89.3989 113.572C89.3989 113.572 79.0457 141.781 78.8784 144.938C78.7111 148.094 75.7585 188.013 73.2822 190.333C70.8059 192.652 63.2351 228.611 69.1259 231.424C75.0167 234.237 93.6017 229.577 93.6017 229.577L100.067 187.101L102.263 154.558C102.263 154.558 108.95 231.19 121.077 230.964C133.204 230.739 147.982 226.122 147.982 226.122L131.008 179.713C131.008 179.713 131.248 124.771 127.314 113.69C123.379 102.609 89.3989 113.572 89.3989 113.572Z" fill="#2F2E41"/>
<path d="M120.121 40.8953L106.255 42.165L104.022 49.0202C104.022 49.0202 92.4181 55.3913 94.9874 58.2857C97.5568 61.1801 94.4129 80.6858 94.4129 80.6858L95.123 96.5189C95.123 96.5189 94.3602 107.488 92.0775 110.016C89.7948 112.543 83.8228 118.741 88.0425 115.776C102.838 105.379 128.699 114.152 128.699 114.152L125.005 91.5283C125.005 91.5283 133.396 54.4883 130.085 51.3602C126.773 48.232 123.649 47.8366 123.649 47.8366L120.121 40.8953Z" fill="#D9614C"/>
<path d="M47.264 112.656C47.9606 112.527 48.6203 112.246 49.1966 111.834C49.7729 111.422 50.2518 110.888 50.5996 110.271C50.9474 109.654 51.1556 108.968 51.2095 108.261C51.2635 107.555 51.1618 106.845 50.9118 106.183L74.2975 86.3468L65.7288 83.7607L44.3235 103.438C43.2376 103.931 42.3705 104.806 41.8866 105.896C41.4027 106.987 41.3357 108.216 41.6981 109.353C42.0606 110.489 42.8274 111.453 43.8532 112.062C44.879 112.671 46.0926 112.882 47.264 112.656V112.656Z" fill="#FFB8B8"/>
<path d="M106.655 60.7718C106.655 60.7718 111.263 51.337 100.232 52.9487C89.2016 54.5603 47.3716 97.458 47.3716 97.458L54.3719 106.66L96.6476 69.2104L106.655 60.7718Z" fill="#D9614C"/>
<path d="M88.6919 44.7683L44.9576 100.785C44.201 101.757 43.8608 102.989 44.0115 104.212C44.1622 105.435 44.7916 106.548 45.7616 107.307C55.9178 131.961 86.3025 150.244 122.046 166.838C123.018 167.595 124.251 167.936 125.474 167.785C126.697 167.634 127.81 167.005 128.569 166.034L172.304 110.018C173.061 109.046 173.402 107.813 173.251 106.59C173.1 105.368 172.47 104.254 171.5 103.495C141.504 86.5621 115.723 66.9433 95.2156 43.9645C94.2431 43.2081 93.0104 42.8679 91.7876 43.0186C90.5647 43.1693 89.4515 43.7985 88.6919 44.7683V44.7683Z" fill="#E6E6E6"/>
<path d="M169.234 108.743L155.922 125.794C147.79 136.147 135.89 142.862 122.823 144.472C109.755 146.082 96.5809 142.457 86.1782 134.387L48.8712 105.273C48.3186 104.842 47.9597 104.209 47.8732 103.513C47.7868 102.818 47.9799 102.116 48.4102 101.563L90.6707 47.4337C91.1033 46.882 91.7371 46.5243 92.4332 46.4393C93.1292 46.3542 93.8305 46.5486 94.3833 46.9798C113.255 71.3435 138.517 90.3031 168.777 105.035C169.329 105.467 169.687 106.1 169.772 106.795C169.858 107.49 169.664 108.191 169.234 108.743Z" fill="white"/>
<path d="M87.8195 75.348L79.1498 86.4524C78.9197 86.7466 78.5823 86.9373 78.2116 86.9828C77.8409 87.0283 77.4673 86.9249 77.1729 86.6951C76.8785 86.4654 76.6874 86.1282 76.6415 85.7576C76.5957 85.387 76.6988 85.0134 76.9284 84.7189L85.5981 73.6144C85.7119 73.4684 85.8533 73.3463 86.0143 73.2549C86.1754 73.1636 86.3528 73.1049 86.5366 73.0822C86.7203 73.0595 86.9067 73.0732 87.0852 73.1225C87.2636 73.1719 87.4306 73.2559 87.5765 73.3698C87.7225 73.4837 87.8445 73.6252 87.9357 73.7863C88.0269 73.9473 88.0855 74.1248 88.108 74.3085C88.1306 74.4923 88.1167 74.6786 88.0672 74.857C88.0177 75.0353 87.9335 75.2022 87.8195 75.348H87.8195Z" fill="#CCCCCC"/>
<path d="M104.08 67.1111L85.0412 91.4973C84.9273 91.6432 84.7859 91.7651 84.6249 91.8563C84.4639 91.9475 84.2865 92.0061 84.1028 92.0287C83.9192 92.0513 83.7329 92.0376 83.5546 91.9882C83.3762 91.9388 83.2094 91.8548 83.0635 91.741C82.9177 91.6272 82.7957 91.4858 82.7045 91.3248C82.6133 91.1638 82.5547 90.9865 82.5321 90.8029C82.5094 90.6193 82.5232 90.433 82.5726 90.2547C82.6219 90.0764 82.7059 89.9096 82.8198 89.7638L101.859 65.3775C101.973 65.2313 102.114 65.109 102.275 65.0176C102.436 64.9261 102.614 64.8673 102.798 64.8445C102.982 64.8217 103.168 64.8353 103.347 64.8846C103.525 64.934 103.692 65.018 103.838 65.132C103.984 65.2459 104.106 65.3875 104.198 65.5487C104.289 65.7099 104.347 65.8875 104.37 66.0713C104.392 66.2551 104.378 66.4416 104.329 66.62C104.279 66.7984 104.195 66.9653 104.081 67.1111H104.08Z" fill="#CCCCCC"/>
<path d="M71.6086 107.787C76.734 107.787 80.889 103.633 80.889 98.5086C80.889 93.3843 76.734 89.2302 71.6086 89.2302C66.4831 89.2302 62.3281 93.3843 62.3281 98.5086C62.3281 103.633 66.4831 107.787 71.6086 107.787Z" fill="#D9614C"/>
<path d="M105.092 86.3845L81.7078 116.336C81.4638 116.584 81.1368 116.734 80.7893 116.757C80.4418 116.78 80.0979 116.674 79.8234 116.46C79.5488 116.246 79.3627 115.938 79.3006 115.595C79.2384 115.253 79.3046 114.899 79.4864 114.602L102.871 84.651C103.115 84.4025 103.441 84.2526 103.789 84.2296C104.137 84.2067 104.48 84.3125 104.755 84.5267C105.029 84.741 105.216 85.0488 105.278 85.3914C105.34 85.734 105.274 86.0875 105.092 86.3845Z" fill="#CCCCCC"/>
<path d="M120.261 79.5464L87.6229 121.351C87.3788 121.599 87.0519 121.749 86.7043 121.772C86.3568 121.795 86.013 121.69 85.7384 121.475C85.4639 121.261 85.2778 120.953 85.2156 120.611C85.1535 120.268 85.2196 119.914 85.4015 119.617L118.04 77.8129C118.284 77.5644 118.611 77.4144 118.958 77.3915C119.306 77.3686 119.65 77.4743 119.924 77.6886C120.199 77.9029 120.385 78.2106 120.447 78.5533C120.509 78.8959 120.443 79.2494 120.261 79.5464V79.5464Z" fill="#CCCCCC"/>
<path d="M120.148 98.1343L96.764 128.086C96.5199 128.334 96.193 128.484 95.8454 128.507C95.4979 128.53 95.1541 128.424 94.8795 128.21C94.605 127.996 94.4189 127.688 94.3567 127.345C94.2946 127.002 94.3607 126.649 94.5426 126.352L117.927 96.4007C118.171 96.1523 118.498 96.0023 118.845 95.9794C119.193 95.9565 119.537 96.0622 119.811 96.2765C120.086 96.4907 120.272 96.7985 120.334 97.1411C120.396 97.4838 120.33 97.8373 120.148 98.1343Z" fill="#CCCCCC"/>
<path d="M151.089 101.828L127.705 131.779C127.461 132.028 127.134 132.178 126.787 132.2C126.439 132.223 126.095 132.118 125.821 131.903C125.546 131.689 125.36 131.381 125.298 131.039C125.236 130.696 125.302 130.343 125.484 130.046L148.868 100.094C149.112 99.8459 149.439 99.6959 149.787 99.673C150.134 99.6501 150.478 99.7558 150.752 99.9701C151.027 100.184 151.213 100.492 151.275 100.835C151.337 101.177 151.271 101.531 151.089 101.828Z" fill="#D9614C"/>
<path d="M135.318 91.2959L102.679 133.101C102.435 133.349 102.108 133.499 101.761 133.522C101.413 133.545 101.07 133.439 100.795 133.225C100.52 133.011 100.334 132.703 100.272 132.36C100.21 132.017 100.276 131.664 100.458 131.367L133.097 89.5623C133.341 89.3139 133.668 89.1639 134.015 89.141C134.363 89.1181 134.706 89.2238 134.981 89.4381C135.256 89.6524 135.442 89.9601 135.504 90.3028C135.566 90.6454 135.5 90.9989 135.318 91.2959V91.2959Z" fill="#CCCCCC"/>
<path d="M96.8745 23.1978C96.8737 25.4516 97.4262 27.6713 98.4837 29.6618C99.5412 31.6523 101.071 33.3529 102.94 34.6142C104.808 35.8755 106.957 36.659 109.199 36.8959C111.441 37.1328 113.707 36.8159 115.798 35.973C117.888 35.13 119.74 33.7868 121.191 32.0613C122.641 30.3358 123.646 28.2808 124.116 26.0765C124.587 23.8723 124.509 21.5863 123.889 19.4192C123.27 17.2521 122.128 15.2701 120.563 13.6473L120.497 13.5813C120.387 13.4656 120.277 13.35 120.161 13.2398C120.16 13.2398 120.159 13.2397 120.159 13.2394C120.158 13.2391 120.157 13.2387 120.157 13.2382C120.156 13.2377 120.156 13.2371 120.156 13.2364C120.156 13.2357 120.155 13.235 120.155 13.2343C120.012 13.1021 119.869 12.9699 119.72 12.8432C117.73 11.0989 115.279 9.96491 112.661 9.57711C110.043 9.18932 107.369 9.56412 104.958 10.6567C102.548 11.7492 100.503 13.5132 99.0696 15.7374C97.6359 17.9616 96.8738 20.5517 96.8745 23.1978V23.1978Z" fill="#2F2E41"/>
<path d="M114.04 37.9297C120.419 37.9297 125.589 32.7603 125.589 26.3835C125.589 20.0068 120.419 14.8374 114.04 14.8374C107.662 14.8374 102.492 20.0068 102.492 26.3835C102.492 32.7603 107.662 37.9297 114.04 37.9297Z" fill="#FFB8B8"/>
<path d="M101.728 29.4605C100.599 24.3746 102.231 18.6766 105.788 15.2812C107.578 13.6072 109.803 12.4719 112.209 12.0057C114.614 11.5395 117.103 11.7614 119.388 12.6458C119.678 12.763 119.969 12.8913 120.254 13.0252L120.386 13.0877V13.1071C120.412 13.1249 120.438 13.1436 120.463 13.1625C120.517 13.213 120.583 13.2492 120.654 13.2678C121.657 13.2416 122.654 13.4275 123.58 13.8134C124.506 14.1992 125.34 14.7763 126.027 15.5069C127.817 17.4486 128.66 20.5865 128.401 24.3426L128.393 24.46L128.293 24.5225C126.938 25.381 125.532 26.1562 124.082 26.8436C119.012 29.227 114.384 29.6686 109.935 28.192L109.854 28.1649L107.986 25.0365C107.603 27.1942 107.808 34.3512 105.608 34.7389L101.776 29.6763L101.728 29.4605Z" fill="#2F2E41"/>
<path d="M77.4174 39.5135C81.3474 37.4855 76.293 30.1251 77.3087 25.8217C78.3243 21.5182 85.6383 20.1341 86.1042 15.737C86.5701 11.34 87.6662 6.80496 90.5684 3.46846C92.4229 1.33644 95.1554 -0.237487 97.9688 0.0295622C98.9207 0.119914 99.842 0.414317 100.67 0.892718C101.498 1.37112 102.213 2.02229 102.766 2.80186C103.32 3.58142 103.698 4.47108 103.877 5.41025C104.055 6.34941 104.029 7.31601 103.801 8.24421C104.602 7.10946 106.675 7.3554 107.188 8.64614C107.644 9.7936 106.636 11.1835 105.45 11.285C103.898 13.2011 102.121 15.2345 99.69 15.6211C99.3026 15.71 98.9001 15.7098 98.5128 15.6204C98.1256 15.531 97.7637 15.3549 97.4545 15.1052C96.8825 14.556 96.838 13.4581 97.5165 13.0477C94.4611 14.2611 92.6698 17.5639 92.2164 20.8194C91.7631 24.0748 92.3903 27.3687 92.8036 30.6295C93.2169 33.8903 93.395 37.3205 92.1162 40.3486C90.6052 43.9262 87.1266 46.4904 83.3302 47.3128C79.5338 48.1351 75.4908 47.3314 72.0545 45.5207C68.6181 43.7098 65.7525 40.9455 63.4116 37.8463C67.444 40.7089 73.0228 41.7814 77.4174 39.5135Z" fill="#2F2E41"/>
<path d="M108.523 25.637C104.485 32.5917 112.089 44.3098 104.426 46.7431L105.057 46.1119C109.683 40.4236 100.015 28.3839 104.64 22.6956C105.359 21.8612 105.976 20.9443 106.478 19.9644" fill="#2F2E41"/>
<path d="M102.268 29.3554C102.268 29.3554 105.689 16.5885 120.354 13.6418C120.37 13.6364 120.425 13.6143 120.497 13.5813C120.541 13.5538 120.596 13.5262 120.651 13.4987C120.486 13.405 120.326 13.3225 120.161 13.2398C120.16 13.2398 120.159 13.2396 120.159 13.2394C120.158 13.2391 120.157 13.2387 120.157 13.2382C120.156 13.2377 120.156 13.2371 120.156 13.2364C120.155 13.2357 120.155 13.235 120.155 13.2343C120.012 13.1021 119.869 12.9699 119.72 12.8432L119.301 12.8598C119.301 12.8598 104.587 10.53 102.268 29.3554Z" fill="#D9614C"/>
<path d="M1.80076e-06 250.896C-0.000157109 250.826 0.0102029 250.757 0.0304803 250.692C0.0507576 250.628 0.0805564 250.569 0.11816 250.52C0.155763 250.471 0.200427 250.432 0.249588 250.405C0.298749 250.379 0.351433 250.365 0.40461 250.365H243.595C243.703 250.365 243.806 250.421 243.881 250.521C243.957 250.62 244 250.755 244 250.896C244 251.036 243.957 251.171 243.881 251.271C243.806 251.37 243.703 251.426 243.595 251.426H0.40459C0.351415 251.426 0.298735 251.413 0.249578 251.386C0.20042 251.359 0.155755 251.32 0.118154 251.271C0.0805538 251.222 0.0507572 251.163 0.0304803 251.099C0.0102033 251.034 -0.00015484 250.965 1.80076e-06 250.896V250.896Z" fill="#D9614C"/>
</svg>
