<svg width="58" height="20" viewBox="0 0 58 20" fill="none" xmlns="http://www.w3.org/2000/svg">
<g clip-path="url(#clip0_420_119)">
<path fill-rule="evenodd" clip-rule="evenodd" d="M15.7142 17.9058C15.7187 17.356 15.5145 16.8251 15.1428 16.4201L9.06853 10.0001L15.1428 3.58005C15.515 3.17619 15.7216 2.6471 15.7216 2.09791C15.7216 1.54872 15.515 1.01963 15.1428 0.615767C14.9648 0.421553 14.7484 0.266476 14.5072 0.160386C14.2661 0.0542964 14.0055 -0.000488281 13.7421 -0.000488281C13.4787 -0.000488281 13.2181 0.0542964 12.977 0.160386C12.7358 0.266476 12.5194 0.421553 12.3414 0.615767L4.8671 8.51862C4.49337 8.92085 4.28564 9.44957 4.28564 9.99862C4.28564 10.5477 4.49337 11.0764 4.8671 11.4786L12.3342 19.3843C12.5122 19.5786 12.7287 19.7336 12.9698 19.8397C13.2109 19.9458 13.4715 20.0006 13.735 20.0006C13.9984 20.0006 14.259 19.9458 14.5001 19.8397C14.7412 19.7336 14.9577 19.5786 15.1357 19.3843C15.5069 18.9819 15.7112 18.4533 15.7071 17.9058" fill="#403B36"/>
</g>
<path d="M27.24 14C26.8013 14 26.4653 13.888 26.232 13.664C26.008 13.4307 25.896 13.0993 25.896 12.67V5.46C25.896 5.03067 26.008 4.704 26.232 4.48C26.4653 4.24667 26.8013 4.13 27.24 4.13H30.656C31.3653 4.13 31.9673 4.23733 32.462 4.452C32.966 4.65733 33.3487 4.95133 33.61 5.334C33.8713 5.71667 34.002 6.16467 34.002 6.678C34.002 7.25667 33.834 7.75133 33.498 8.162C33.1713 8.57267 32.7233 8.85267 32.154 9.002V8.778C32.826 8.89933 33.344 9.17 33.708 9.59C34.0813 10.01 34.268 10.5467 34.268 11.2C34.268 12.068 33.9553 12.754 33.33 13.258C32.714 13.7527 31.8693 14 30.796 14H27.24ZM28.36 12.11H30.446C30.922 12.11 31.2673 12.0213 31.482 11.844C31.706 11.6573 31.818 11.382 31.818 11.018C31.818 10.654 31.706 10.3833 31.482 10.206C31.2673 10.0287 30.922 9.94 30.446 9.94H28.36V12.11ZM28.36 8.05H30.194C30.6607 8.05 31.0013 7.966 31.216 7.798C31.44 7.63 31.552 7.37333 31.552 7.028C31.552 6.68267 31.44 6.43067 31.216 6.272C31.0013 6.104 30.6607 6.02 30.194 6.02H28.36V8.05ZM37.9521 14.154C37.4201 14.154 36.9487 14.056 36.5381 13.86C36.1367 13.664 35.8194 13.398 35.5861 13.062C35.3621 12.7167 35.2501 12.3247 35.2501 11.886C35.2501 11.382 35.3807 10.9853 35.6421 10.696C35.9034 10.4067 36.3234 10.2013 36.9021 10.08C37.4807 9.94933 38.2507 9.884 39.2121 9.884H39.9821V11.06H39.2121C38.8481 11.06 38.5447 11.088 38.3021 11.144C38.0687 11.1907 37.8961 11.27 37.7841 11.382C37.6721 11.4847 37.6161 11.62 37.6161 11.788C37.6161 12.0027 37.6907 12.18 37.8401 12.32C37.9987 12.46 38.2227 12.53 38.5121 12.53C38.7454 12.53 38.9507 12.4787 39.1281 12.376C39.3147 12.2733 39.4641 12.1333 39.5761 11.956C39.6881 11.7693 39.7441 11.5547 39.7441 11.312V9.688C39.7441 9.352 39.6554 9.114 39.4781 8.974C39.3101 8.834 39.0161 8.764 38.5961 8.764C38.3721 8.764 38.1201 8.792 37.8401 8.848C37.5601 8.89467 37.2474 8.98333 36.9021 9.114C36.6501 9.20733 36.4354 9.22133 36.2581 9.156C36.0807 9.09067 35.9407 8.97867 35.8381 8.82C35.7447 8.66133 35.6981 8.48867 35.6981 8.302C35.7074 8.11533 35.7681 7.938 35.8801 7.77C36.0014 7.602 36.1834 7.47133 36.4261 7.378C36.8741 7.21 37.2847 7.098 37.6581 7.042C38.0407 6.986 38.3907 6.958 38.7081 6.958C39.4734 6.958 40.1034 7.07 40.5981 7.294C41.1021 7.50867 41.4754 7.84467 41.7181 8.302C41.9701 8.75 42.0961 9.32867 42.0961 10.038V12.866C42.0961 13.2767 41.9981 13.5893 41.8021 13.804C41.6061 14.0187 41.3214 14.126 40.9481 14.126C40.5654 14.126 40.2714 14.0187 40.0661 13.804C39.8701 13.5893 39.7721 13.2767 39.7721 12.866V12.502L39.8561 12.698C39.8094 12.9967 39.7021 13.2533 39.5341 13.468C39.3661 13.6827 39.1467 13.8507 38.8761 13.972C38.6054 14.0933 38.2974 14.154 37.9521 14.154ZM47.0291 14.154C46.2544 14.154 45.5778 14.0093 44.9991 13.72C44.4298 13.4307 43.9864 13.0153 43.6691 12.474C43.3518 11.9233 43.1931 11.2793 43.1931 10.542C43.1931 9.982 43.2818 9.48267 43.4591 9.044C43.6364 8.596 43.8931 8.218 44.2291 7.91C44.5744 7.602 44.9804 7.36867 45.4471 7.21C45.9231 7.042 46.4504 6.958 47.0291 6.958C47.2998 6.958 47.5844 6.986 47.8831 7.042C48.1818 7.08867 48.4898 7.182 48.8071 7.322C49.0311 7.406 49.1851 7.53667 49.2691 7.714C49.3624 7.882 49.3998 8.064 49.3811 8.26C49.3718 8.456 49.3158 8.63333 49.2131 8.792C49.1198 8.95067 48.9844 9.058 48.8071 9.114C48.6391 9.17 48.4478 9.14667 48.2331 9.044C48.0838 8.96933 47.9251 8.918 47.7571 8.89C47.5984 8.85267 47.4444 8.834 47.2951 8.834C47.0431 8.834 46.8191 8.87133 46.6231 8.946C46.4364 9.02067 46.2778 9.13267 46.1471 9.282C46.0164 9.422 45.9138 9.59933 45.8391 9.814C45.7738 10.0287 45.7411 10.2713 45.7411 10.542C45.7411 11.0833 45.8764 11.508 46.1471 11.816C46.4178 12.124 46.8004 12.278 47.2951 12.278C47.4444 12.278 47.5984 12.264 47.7571 12.236C47.9158 12.1987 48.0744 12.1427 48.2331 12.068C48.4478 11.9653 48.6391 11.9467 48.8071 12.012C48.9751 12.068 49.1104 12.1753 49.2131 12.334C49.3158 12.4927 49.3718 12.67 49.3811 12.866C49.3904 13.0527 49.3484 13.2347 49.2551 13.412C49.1618 13.58 49.0031 13.706 48.7791 13.79C48.4711 13.93 48.1678 14.0233 47.8691 14.07C47.5798 14.126 47.2998 14.154 47.0291 14.154ZM51.5284 14.126C51.1364 14.126 50.833 14.0187 50.6184 13.804C50.4037 13.5893 50.2964 13.2767 50.2964 12.866V5.264C50.2964 4.85333 50.4037 4.54067 50.6184 4.326C50.833 4.11133 51.1364 4.004 51.5284 4.004C51.9297 4.004 52.2377 4.11133 52.4524 4.326C52.6764 4.54067 52.7884 4.85333 52.7884 5.264V9.884H52.8164L54.5244 7.812C54.7577 7.532 54.9724 7.32667 55.1684 7.196C55.3737 7.056 55.649 6.986 55.9944 6.986C56.3397 6.986 56.6057 7.07 56.7924 7.238C56.979 7.406 57.077 7.616 57.0864 7.868C57.0957 8.12 56.993 8.372 56.7784 8.624L54.9304 10.808V9.94L57.0024 12.544C57.2077 12.8053 57.2917 13.062 57.2544 13.314C57.217 13.5567 57.0957 13.7527 56.8904 13.902C56.6944 14.0513 56.4424 14.126 56.1344 14.126C55.761 14.126 55.4624 14.0607 55.2384 13.93C55.0144 13.79 54.7904 13.5753 54.5664 13.286L52.8164 11.13H52.7884V12.866C52.7884 13.706 52.3684 14.126 51.5284 14.126Z" fill="#403B36"/>
<defs>
<clipPath id="clip0_420_119">
<rect width="20" height="20" fill="white"/>
</clipPath>
</defs>
</svg>
