<svg width="314" height="223" viewBox="0 0 314 223" fill="none" xmlns="http://www.w3.org/2000/svg">
<path d="M20.7349 223H292.092C292.229 223 292.361 222.945 292.459 222.848C292.556 222.751 292.61 222.619 292.61 222.482C292.61 222.344 292.556 222.212 292.459 222.115C292.361 222.018 292.229 221.963 292.092 221.963H20.7349C20.5973 221.963 20.4654 222.018 20.3682 222.115C20.2709 222.212 20.2163 222.344 20.2163 222.482C20.2163 222.619 20.2709 222.751 20.3682 222.848C20.4654 222.945 20.5973 223 20.7349 223V223Z" fill="#D9614C"/>
<path d="M72.8704 97.3635C57.0004 81.739 50.2977 65.4387 53.9964 51.4657C58.743 33.5344 79.8299 21.1364 111.85 17.4507L111.968 18.4793C80.3939 22.1134 59.6287 34.2331 54.9971 51.7306C51.3974 65.329 58.0029 81.2732 73.5967 96.626L72.8704 97.3635Z" fill="#D9614C"/>
<path d="M225.989 152.826C206.182 152.826 184.659 149.882 163.28 144.222C136.842 137.222 112.601 126.656 93.1782 113.667L93.7534 112.807C113.083 125.733 137.216 136.25 163.545 143.221C187.337 149.521 211.308 152.44 232.858 151.669L232.895 152.704C230.619 152.785 228.317 152.826 225.989 152.826Z" fill="#D9614C"/>
<path d="M271.428 146.316L271.097 145.336C288.811 139.346 299.891 129.697 303.138 117.43C307.265 101.837 298.298 83.7424 277.888 66.479C257.374 49.1279 227.792 34.7309 194.59 25.9405L194.855 24.9397C228.202 33.7688 257.928 48.2404 278.556 65.6888C299.289 83.2246 308.374 101.694 304.138 117.695C300.798 130.313 289.487 140.21 271.428 146.316Z" fill="#D9614C"/>
<path d="M108.768 153.258C69.8494 135.995 39.8594 113.599 24.3232 90.1943L25.1854 89.6216C40.6142 112.864 70.4468 135.128 109.188 152.312L108.768 153.258Z" fill="#D9614C"/>
<path d="M245.604 183.165C241.59 183.165 237.507 183.076 233.355 182.896L233.4 181.862C264.381 183.204 291.716 179.496 312.455 171.137L312.842 172.098C294.751 179.388 271.692 183.165 245.604 183.165Z" fill="#D9614C"/>
<path d="M223.024 18.3791C216.591 16.2845 209.975 14.3343 203.358 12.5824C165.282 2.50135 127.853 -1.07796 95.1163 2.23347L95.0122 1.20338C127.871 -2.1189 165.428 1.46897 203.623 11.5816C210.258 13.3386 216.893 15.2944 223.344 17.395L223.024 18.3791Z" fill="#D9614C"/>
<path d="M48.5472 98.9162C32.6772 83.2917 25.9745 66.9914 29.6732 53.0185C34.4198 35.0871 55.5066 22.6891 87.5268 19.0034L87.645 20.032C56.0706 23.6661 35.3055 35.7859 30.6738 53.2833C27.0742 66.8817 33.6796 82.8259 49.2734 98.1787L48.5472 98.9162Z" fill="#D9614C"/>
<path d="M201.666 154.379C181.859 154.379 160.335 151.435 138.956 145.774C112.519 138.775 88.2778 128.209 68.855 115.22L69.4301 114.359C88.7595 127.286 112.893 137.803 139.221 144.774C163.014 151.073 186.985 153.992 208.534 153.222L208.572 154.256C206.296 154.338 203.994 154.379 201.666 154.379Z" fill="#D9614C"/>
<path d="M247.105 147.869L246.773 146.888C264.488 140.898 275.567 131.249 278.815 118.983C282.942 103.39 273.975 85.2952 253.565 68.0317C233.051 50.6806 203.469 36.2836 170.267 27.4932L170.532 26.4924C203.878 35.3215 233.604 49.7931 254.233 67.2415C274.965 84.7773 284.051 103.247 279.815 119.248C276.475 131.866 265.164 141.763 247.105 147.869Z" fill="#D9614C"/>
<path d="M84.4452 154.811C45.5262 137.548 15.5362 115.152 0 91.747L0.862204 91.1743C16.291 114.417 46.1236 136.681 84.8646 153.865L84.4452 154.811Z" fill="#D9614C"/>
<path d="M221.281 184.718C217.267 184.718 213.184 184.628 209.033 184.449L209.077 183.415C240.058 184.756 267.393 181.048 288.132 172.69L288.519 173.65C270.428 180.941 247.369 184.718 221.281 184.718Z" fill="#D9614C"/>
<path d="M198.7 19.9318C192.267 17.8373 185.651 15.887 179.034 14.1352C140.959 4.0541 103.53 0.474795 70.7926 3.7862L70.6885 2.75611C103.548 -0.566165 141.105 3.0217 179.299 13.1344C185.934 14.8913 192.57 16.8471 199.02 18.9477L198.7 19.9318Z" fill="#D9614C"/>
<path d="M18.8969 73.151C26.3348 64.8107 38.1996 59.7276 48.9517 62.7704C39.0324 69.7908 31.9158 80.0939 28.861 91.8567C27.6993 96.3974 26.8799 101.569 23.1041 104.345C20.7546 106.073 17.6416 106.485 14.7523 106.092C11.8629 105.698 9.13084 104.575 6.43567 103.461L5.71045 103.524C7.79551 92.5445 11.459 81.4912 18.8969 73.151Z" fill="#D9614C"/>
<path d="M48.9191 63.0027C39.9296 65.1795 31.8545 70.1337 25.8407 77.1618C24.5192 78.6517 23.4408 80.3407 22.6452 82.1666C21.9276 83.9702 21.7061 85.9331 22.0036 87.8513C22.2451 89.6455 22.6998 91.4527 22.5011 93.2743C22.3855 94.2052 22.0744 95.1012 21.5883 95.9034C21.1022 96.7057 20.452 97.3961 19.6803 97.9294C17.7922 99.3083 15.5213 99.9265 13.2795 100.454C10.7904 101.039 8.19579 101.608 6.1668 103.262C5.92097 103.463 5.62434 103.07 5.86981 102.869C9.39989 99.9911 14.3059 100.361 18.2117 98.27C20.0341 97.2945 21.5737 95.7638 21.948 93.6634C22.2753 91.8266 21.808 89.9626 21.5478 88.1481C21.2301 86.2811 21.3744 84.3646 21.968 82.5662C22.6681 80.7058 23.6796 78.9781 24.9593 77.457C27.7857 73.9867 31.1401 70.9825 34.8996 68.5543C39.1749 65.7592 43.8968 63.7161 48.861 62.5135C49.1682 62.4392 49.2244 62.9289 48.9191 63.0027H48.9191Z" fill="white"/>
<path d="M27.6439 74.7848C26.6019 73.6156 26.0093 72.1141 25.9721 70.5483C25.9348 68.9825 26.4553 67.4545 27.4406 66.2371C27.6408 65.9914 28.0318 66.291 27.8314 66.537C26.9118 67.669 26.4271 69.0924 26.4648 70.5504C26.5025 72.0083 27.06 73.4048 28.0368 74.4878C28.2488 74.7234 27.8547 75.019 27.6439 74.7848Z" fill="white"/>
<path d="M21.7614 86.9578C24.9557 87.1699 28.1126 86.1702 30.6026 84.158C30.8491 83.9584 31.1458 84.3516 30.8996 84.5509C28.3045 86.6401 25.0172 87.6737 21.6936 87.4456C21.3768 87.4237 21.4464 86.9359 21.7614 86.9578Z" fill="white"/>
<path d="M39.2857 66.4029C39.5947 66.9393 40.032 67.3906 40.5584 67.7162C41.0848 68.0418 41.6838 68.2315 42.3017 68.2684C42.6186 68.2863 42.5487 68.7741 42.2339 68.7562C41.5515 68.7124 40.8902 68.502 40.3077 68.1436C39.7253 67.7851 39.2396 67.2895 38.8929 66.7C38.8555 66.6471 38.8397 66.5821 38.8486 66.518C38.8575 66.4539 38.8905 66.3956 38.9408 66.355C38.993 66.3159 39.0585 66.299 39.1231 66.308C39.1877 66.317 39.2462 66.3511 39.2857 66.4029L39.2857 66.4029Z" fill="white"/>
<path d="M64.2147 97.3933C64.0166 97.3877 63.8184 97.3821 63.6176 97.3799C60.9527 97.3188 58.2873 97.4743 55.6475 97.845C55.443 97.8704 55.2361 97.8992 55.0326 97.9304C48.6825 98.8912 42.5658 101.023 36.9936 104.216C34.7775 105.489 32.6614 106.929 30.6637 108.523C27.9049 110.725 25.0888 113.331 21.8589 114.46C21.5233 114.581 21.1804 114.682 20.8323 114.761L5.84354 104.404C5.82128 104.363 5.79651 104.326 5.77409 104.285L5.15674 103.899C5.25402 103.81 5.35685 103.719 5.45415 103.63C5.51037 103.577 5.56994 103.528 5.62614 103.476C5.66467 103.442 5.7034 103.408 5.73623 103.375C5.74902 103.363 5.76197 103.352 5.77241 103.344C5.80526 103.311 5.83922 103.284 5.86968 103.255C6.44306 102.747 7.02101 102.241 7.60352 101.739C7.60588 101.736 7.60588 101.736 7.61158 101.735C12.0136 97.8678 16.8589 94.5365 22.0457 91.811C22.2015 91.7318 22.3596 91.649 22.5224 91.5745C24.864 90.3995 27.2977 89.418 29.7992 88.6395C31.1703 88.2177 32.5619 87.8656 33.9686 87.5845C37.6048 86.8652 41.3315 86.7223 45.012 87.1612C52.349 88.0372 59.3242 91.2502 63.8716 96.9541C63.9878 97.1001 64.1009 97.2439 64.2147 97.3933Z" fill="#D9614C"/>
<path d="M64.0496 97.5602C55.5616 93.8854 46.1315 92.9787 37.0989 94.9691C35.1468 95.363 33.269 96.0623 31.5346 97.041C29.8759 98.0491 28.5173 99.483 27.6001 101.194C26.7128 102.772 25.988 104.488 24.7326 105.823C24.0799 106.497 23.2922 107.025 22.4211 107.373C21.55 107.721 20.6152 107.88 19.678 107.842C17.3403 107.806 15.155 106.932 13.0476 106.003C10.7078 104.972 8.29375 103.863 5.67778 103.963C5.36081 103.975 5.36071 103.482 5.67718 103.47C10.2285 103.298 13.9232 106.547 18.3003 107.229C20.3427 107.548 22.4935 107.252 24.0568 105.801C25.4239 104.531 26.1729 102.762 27.0575 101.156C27.9278 99.4742 29.1967 98.0309 30.7533 96.9524C32.4323 95.8885 34.28 95.1181 36.2174 94.6742C40.5633 93.6052 45.0502 93.2262 49.5137 93.5511C54.61 93.8938 59.6101 95.1057 64.2977 97.1346C64.5878 97.2603 64.3378 97.6851 64.0496 97.5602H64.0496Z" fill="white"/>
<path d="M39.9699 94.1571C39.8417 92.5962 40.2726 91.0404 41.1854 89.7678C42.0983 88.4952 43.4337 87.5886 44.9533 87.2098C45.261 87.1342 45.3929 87.6089 45.0848 87.6846C43.6691 88.0347 42.4252 88.8794 41.5776 90.0662C40.73 91.253 40.3344 92.7037 40.4624 94.1565C40.4899 94.4723 39.9972 94.4711 39.9699 94.1571Z" fill="white"/>
<path d="M27.945 100.335C30.3677 102.427 33.4901 103.53 36.6896 103.423C37.0066 103.412 37.0068 103.904 36.6902 103.915C33.3605 104.021 30.1135 102.867 27.5971 100.683C27.3574 100.475 27.7066 100.127 27.945 100.335V100.335Z" fill="white"/>
<path d="M53.0555 92.514C52.9793 93.1284 53.0568 93.752 53.2811 94.3289C53.5054 94.9059 53.8695 95.4181 54.3406 95.8195C54.5828 96.0246 54.2334 96.372 53.9928 96.1682C53.4743 95.7223 53.0729 95.1561 52.8237 94.5192C52.5744 93.8823 52.485 93.1941 52.563 92.5146C52.565 92.45 52.5915 92.3885 52.6372 92.3427C52.6829 92.2969 52.7443 92.2702 52.809 92.2681C52.8742 92.2683 52.9366 92.2943 52.9828 92.3404C53.029 92.3864 53.0551 92.4488 53.0555 92.514H53.0555Z" fill="white"/>
<path d="M310.189 140.451C305.836 129.519 296.03 120.255 284.48 119.465C291.714 129.965 295.071 142.734 293.956 155.514C293.509 160.441 292.508 165.873 295.225 169.974C296.916 172.525 299.809 174.04 302.765 174.674C305.721 175.308 308.778 175.16 311.795 175.009L312.481 175.329C314.269 163.673 314.543 151.383 310.189 140.451Z" fill="#D9614C"/>
<path d="M284.604 120.816C292.639 126.009 298.809 133.566 302.239 142.413C303.012 144.305 303.478 146.305 303.619 148.34C303.691 150.326 303.222 152.295 302.262 154.042C301.399 155.689 300.323 157.276 299.882 159.101C299.67 160.038 299.662 161.009 299.857 161.95C300.053 162.891 300.448 163.781 301.017 164.561C302.382 166.54 304.388 167.918 306.397 169.198C308.628 170.619 310.968 172.061 312.375 174.354C312.546 174.632 312.974 174.355 312.803 174.078C310.354 170.087 305.426 168.755 302.334 165.395C300.892 163.827 299.92 161.821 300.287 159.666C300.608 157.782 301.716 156.146 302.604 154.485C303.567 152.794 304.095 150.897 304.142 148.958C304.106 146.923 303.72 144.909 302.999 143.001C301.445 138.682 299.212 134.63 296.382 130.995C293.175 126.828 289.268 123.233 284.832 120.364C284.557 120.187 284.331 120.64 284.604 120.816V120.816Z" fill="white"/>
<path d="M301.245 139.202C302.79 138.491 303.984 137.342 304.614 135.959C305.245 134.575 305.271 133.049 304.688 131.651C304.569 131.368 304.042 131.511 304.162 131.794C304.707 133.094 304.683 134.517 304.092 135.804C303.502 137.091 302.384 138.158 300.942 138.812C300.628 138.955 300.934 139.343 301.245 139.202Z" fill="white"/>
<path d="M302.351 153.366C299.381 152.52 296.837 150.581 295.228 147.935C295.069 147.673 294.672 147.935 294.831 148.197C296.511 150.947 299.162 152.959 302.255 153.833C302.549 153.916 302.644 153.449 302.351 153.366V153.366Z" fill="white"/>
<path d="M292.681 127.248C292.191 127.731 291.605 128.066 290.975 128.223C290.345 128.379 289.691 128.351 289.073 128.143C288.756 128.035 288.654 128.617 288.969 128.724C289.653 128.951 290.375 128.98 291.071 128.809C291.767 128.638 292.417 128.272 292.963 127.744C293.018 127.699 293.056 127.632 293.07 127.555C293.083 127.479 293.071 127.4 293.036 127.333C292.999 127.268 292.94 127.222 292.874 127.206C292.808 127.19 292.738 127.205 292.681 127.248H292.681Z" fill="white"/>
<path d="M257.837 148.538C258.031 148.601 258.225 148.665 258.42 148.732C261.025 149.598 263.555 150.674 265.986 151.951C266.176 152.047 266.367 152.146 266.553 152.247C272.377 155.386 277.57 159.582 281.867 164.622C283.575 166.629 285.129 168.764 286.514 171.007C288.427 174.106 290.255 177.619 292.996 179.837C293.28 180.072 293.577 180.288 293.887 180.486L312.002 175.616C312.037 175.584 312.074 175.557 312.11 175.525L312.842 175.364C312.779 175.243 312.71 175.119 312.647 174.998C312.611 174.928 312.57 174.859 312.534 174.789C312.508 174.742 312.482 174.696 312.462 174.653C312.453 174.637 312.445 174.622 312.437 174.61C312.417 174.567 312.393 174.529 312.374 174.49C311.994 173.796 311.608 173.104 311.217 172.414C311.216 172.41 311.216 172.41 311.211 172.407C308.281 167.118 304.736 162.197 300.65 157.746C300.527 157.614 300.402 157.479 300.27 157.35C298.406 155.395 296.386 153.595 294.23 151.97C293.047 151.084 291.82 150.258 290.553 149.497C287.277 147.535 283.713 146.103 279.993 145.252C272.577 143.557 264.703 144.261 258.321 148.23C258.158 148.332 257.999 148.432 257.837 148.538Z" fill="#D9614C"/>
<path d="M258.131 149.276C267.633 148.658 277.089 151.009 285.159 155.993C286.915 157.036 288.494 158.345 289.837 159.872C291.096 161.402 291.917 163.236 292.215 165.184C292.529 166.995 292.638 168.883 293.393 170.588C293.793 171.454 294.374 172.228 295.099 172.858C295.823 173.487 296.674 173.959 297.596 174.241C299.875 175.005 302.296 174.915 304.661 174.746C307.286 174.558 310.01 174.323 312.512 175.31C312.815 175.43 312.986 174.959 312.683 174.839C308.33 173.122 303.624 174.967 299.144 174.126C297.053 173.734 295.07 172.718 294.057 170.797C293.17 169.117 293.056 167.17 292.754 165.333C292.492 163.428 291.761 161.616 290.625 160.054C289.365 158.464 287.84 157.097 286.115 156.012C282.271 153.507 278.052 151.614 273.612 150.402C268.552 148.991 263.285 148.444 258.038 148.784C257.713 148.805 257.809 149.297 258.131 149.275V149.276Z" fill="white"/>
<path d="M282.157 153.69C282.822 152.232 282.943 150.587 282.497 149.048C282.052 147.51 281.069 146.179 279.725 145.292C279.452 145.114 279.16 145.525 279.433 145.704C280.686 146.527 281.601 147.767 282.013 149.201C282.425 150.634 282.306 152.166 281.679 153.52C281.543 153.815 282.022 153.983 282.157 153.69L282.157 153.69Z" fill="white"/>
<path d="M291.85 164.217C288.755 165.638 285.321 165.624 282.234 164.179C281.929 164.036 281.757 164.605 282.062 164.749C285.277 166.245 288.85 166.251 292.068 164.764C292.374 164.622 292.155 164.076 291.85 164.217V164.217Z" fill="white"/>
<path d="M268.593 149.715C268.475 150.343 268.227 150.927 267.872 151.413C267.516 151.9 267.065 152.274 266.557 152.502C266.297 152.618 266.483 153.081 266.742 152.965C267.301 152.71 267.8 152.296 268.193 151.759C268.587 151.223 268.863 150.58 268.999 149.888C269.017 149.824 269.013 149.754 268.989 149.693C268.964 149.633 268.922 149.585 268.869 149.56C268.815 149.538 268.756 149.541 268.704 149.57C268.652 149.599 268.612 149.651 268.593 149.715V149.715Z" fill="white"/>
<path d="M87.8355 59.9692C90.122 59.9692 91.9756 58.1154 91.9756 55.8286C91.9756 53.5418 90.122 51.688 87.8355 51.688C85.5489 51.688 83.6953 53.5418 83.6953 55.8286C83.6953 58.1154 85.5489 59.9692 87.8355 59.9692Z" fill="#D9614C"/>
<path d="M246.309 100.82C246.675 98.5632 245.142 96.4363 242.885 96.07C240.628 95.7037 238.502 97.2367 238.135 99.4939C237.769 101.751 239.302 103.878 241.559 104.244C243.816 104.611 245.942 103.078 246.309 100.82Z" fill="#E6E6E6"/>
<path d="M87.667 13.373C89.9535 13.373 91.8072 11.5192 91.8072 9.23239C91.8072 6.9456 89.9535 5.0918 87.667 5.0918C85.3805 5.0918 83.5269 6.9456 83.5269 9.23239C83.5269 11.5192 85.3805 13.373 87.667 13.373Z" fill="#E6E6E6"/>
<path d="M211.2 57.9568H210.019V25.5802C210.019 20.6104 208.045 15.8442 204.531 12.33C201.017 8.81582 196.251 6.84157 191.282 6.84155H122.695C120.235 6.84155 117.798 7.32623 115.525 8.26793C113.252 9.20963 111.186 10.5899 109.446 12.3299C107.707 14.07 106.326 16.1357 105.385 18.4092C104.443 20.6827 103.959 23.1194 103.958 25.5802V25.5802V203.201C103.958 208.17 105.933 212.937 109.446 216.451C112.96 219.965 117.726 221.939 122.695 221.939H191.282C196.251 221.939 201.017 219.965 204.531 216.451C208.045 212.937 210.019 208.17 210.019 203.201V81.003H211.2V57.9568Z" fill="#3F3D56"/>
<path d="M206.03 25.7101V203.07C206.03 204.908 205.669 206.727 204.966 208.424C204.263 210.122 203.233 211.665 201.934 212.964C200.635 214.263 199.093 215.294 197.396 215.997C195.699 216.701 193.88 217.063 192.042 217.063H123.121C119.41 217.063 115.851 215.589 113.228 212.965C110.604 210.342 109.13 206.783 109.129 203.072V25.7101C109.129 23.8726 109.491 22.0532 110.194 20.3555C110.897 18.6579 111.927 17.1154 113.227 15.816C114.526 14.5167 116.068 13.4859 117.765 12.7827C119.463 12.0794 121.282 11.7174 123.119 11.7173H131.485C131.073 12.7267 130.915 13.8219 131.027 14.9065C131.138 15.991 131.514 17.0316 132.122 17.9365C132.73 18.8415 133.551 19.583 134.513 20.0957C135.475 20.6084 136.548 20.8766 137.638 20.8767H176.932C178.022 20.8759 179.095 20.6072 180.057 20.0943C181.019 19.5814 181.839 18.84 182.447 17.9352C183.055 17.0305 183.431 15.9903 183.543 14.906C183.654 13.8218 183.497 12.7267 183.086 11.7173H192.039C193.876 11.7172 195.695 12.079 197.393 12.7821C199.09 13.4852 200.633 14.5158 201.932 15.815C203.231 17.1142 204.262 18.6566 204.965 20.3542C205.668 22.0517 206.03 23.8712 206.03 25.7086V25.7086L206.03 25.7101Z" fill="#F2F2F2"/>
<path d="M135.732 28.6477H114.352V29.6048H135.732V28.6477Z" fill="white"/>
<path d="M168.269 28.6477H146.889V29.6048H168.269V28.6477Z" fill="white"/>
<path d="M191.097 143.248H121.403C121.168 143.248 120.936 143.201 120.719 143.112C120.502 143.022 120.305 142.89 120.138 142.724C119.972 142.558 119.841 142.361 119.751 142.144C119.661 141.927 119.615 141.694 119.615 141.459C119.615 141.224 119.661 140.992 119.751 140.775C119.841 140.558 119.972 140.361 120.138 140.195C120.305 140.029 120.502 139.897 120.719 139.807C120.936 139.717 121.168 139.671 121.403 139.671H191.097C191.332 139.671 191.564 139.717 191.781 139.807C191.998 139.897 192.195 140.029 192.361 140.195C192.527 140.361 192.659 140.558 192.749 140.775C192.839 140.992 192.885 141.224 192.885 141.459C192.885 141.694 192.839 141.927 192.749 142.144C192.659 142.361 192.527 142.558 192.361 142.724C192.195 142.89 191.998 143.022 191.781 143.112C191.564 143.201 191.332 143.248 191.097 143.248V143.248Z" fill="#CCCCCC"/>
<path d="M191.097 155.69H121.403C120.929 155.69 120.474 155.502 120.138 155.166C119.803 154.831 119.615 154.376 119.615 153.902C119.615 153.428 119.803 152.973 120.138 152.637C120.474 152.302 120.929 152.114 121.403 152.114H191.097C191.571 152.114 192.026 152.302 192.361 152.637C192.697 152.973 192.885 153.428 192.885 153.902C192.885 154.376 192.697 154.831 192.361 155.166C192.026 155.502 191.571 155.69 191.097 155.69V155.69Z" fill="#CCCCCC"/>
<path d="M191.097 168.132H121.403C120.929 168.132 120.474 167.944 120.138 167.609C119.803 167.273 119.615 166.818 119.615 166.344C119.615 165.87 119.803 165.415 120.138 165.079C120.474 164.744 120.929 164.556 121.403 164.556H191.097C191.571 164.556 192.026 164.744 192.361 165.079C192.697 165.415 192.885 165.87 192.885 166.344C192.885 166.818 192.697 167.273 192.361 167.609C192.026 167.944 191.571 168.132 191.097 168.132V168.132Z" fill="#CCCCCC"/>
<path d="M200.807 28.6477H179.427V29.6048H200.807V28.6477Z" fill="white"/>
<path d="M135.732 200.447H114.352V201.404H135.732V200.447Z" fill="white"/>
<path d="M168.269 200.447H146.889V201.404H168.269V200.447Z" fill="white"/>
<path d="M200.807 200.447H179.427V201.404H200.807V200.447Z" fill="white"/>
<path d="M157.579 118.749C175.478 118.749 189.987 104.238 189.987 86.3374C189.987 68.437 175.478 53.9258 157.579 53.9258C139.681 53.9258 125.171 68.437 125.171 86.3374C125.171 104.238 139.681 118.749 157.579 118.749Z" fill="#D1D3D4"/>
<path d="M157.579 117.343C173.908 117.343 187.145 104.104 187.145 87.7738C187.145 71.4432 173.908 58.2046 157.579 58.2046C141.25 58.2046 128.013 71.4432 128.013 87.7738C128.013 104.104 141.25 117.343 157.579 117.343Z" fill="#D9614C"/>
<path d="M154.998 99.3629C154.934 99.3629 154.87 99.3614 154.805 99.3583C154.238 99.3308 153.684 99.1809 153.18 98.9191C152.676 98.6572 152.235 98.2896 151.887 97.8412L147.227 91.85C146.586 91.0245 146.299 89.9785 146.428 88.9415C146.558 87.9046 147.093 86.9613 147.918 86.3188L148.084 86.1888C148.91 85.548 149.956 85.2608 150.993 85.3901C152.03 85.5195 152.974 86.0549 153.617 86.8789C153.826 87.148 154.091 87.3688 154.393 87.5261C154.696 87.6833 155.028 87.7732 155.369 87.7897C155.71 87.8096 156.051 87.7541 156.368 87.6269C156.684 87.4998 156.969 87.3042 157.202 87.0543L166.663 77.0657C167.383 76.308 168.373 75.8666 169.418 75.8384C170.462 75.8101 171.475 76.1972 172.235 76.9149L172.388 77.0603C173.146 77.7798 173.588 78.7706 173.617 79.8153C173.645 80.8601 173.258 81.8735 172.54 82.6331L157.858 98.132C157.49 98.521 157.047 98.8308 156.555 99.0424C156.063 99.2541 155.533 99.3631 154.998 99.3629V99.3629Z" fill="white"/>
<path d="M105.798 40.9768H101.97V61.5544H105.798V40.9768Z" fill="#3F3D56"/>
<path d="M105.798 63.947H101.97V75.9108H105.798V63.947Z" fill="#3F3D56"/>
<path d="M105.798 78.3035H101.97V90.2672H105.798V78.3035Z" fill="#3F3D56"/>
<path d="M138.815 16.5706C139.872 16.5706 140.729 15.7136 140.729 14.6564C140.729 13.5992 139.872 12.7422 138.815 12.7422C137.758 12.7422 136.901 13.5992 136.901 14.6564C136.901 15.7136 137.758 16.5706 138.815 16.5706Z" fill="white"/>
<path opacity="0.16" d="M157.579 113.247C150.099 113.246 142.898 110.409 137.426 105.308C131.954 100.207 128.62 93.2214 128.094 85.759C128.046 86.4474 128.013 87.1399 128.013 87.8405C128.013 95.6827 131.128 103.204 136.673 108.749C142.218 114.294 149.738 117.41 157.579 117.41C165.421 117.41 172.941 114.294 178.486 108.749C184.03 103.204 187.145 95.6827 187.145 87.8405C187.145 87.1399 187.112 86.4474 187.064 85.759C186.539 93.2214 183.204 100.207 177.732 105.308C172.261 110.409 165.059 113.246 157.579 113.247V113.247Z" fill="#231F20"/>
<path d="M199.262 111.634L222.708 112.591L225.579 96.7984L205.482 90.5776L199.262 111.634Z" fill="#FFB8B8"/>
<path d="M208.124 77.4297L208.351 69.9689L196.987 67.1197L176.528 61.1504C176.258 60.329 175.744 59.6091 175.055 59.086C174.366 58.5629 173.535 58.2612 172.671 58.2209C171.807 58.1806 170.951 58.4036 170.217 58.8603C169.483 59.317 168.904 59.986 168.558 60.7786C168.212 61.5713 168.115 62.4504 168.279 63.2996C168.443 64.1487 168.862 64.928 169.479 65.5343C170.095 66.1405 170.882 66.5452 171.733 66.6948C172.585 66.8444 173.462 66.7318 174.249 66.372L194.138 74.5487L208.124 77.4297Z" fill="#FFB8B8"/>
<path d="M200.802 77.3772L207.194 68.2588L207.354 68.28C207.454 68.2933 217.479 69.6346 224.051 71.5918C224.789 71.7876 225.476 72.1421 226.064 72.6306C226.651 73.1192 227.125 73.73 227.453 74.4206C227.922 75.3856 228.1 76.4668 227.964 77.5314C227.828 78.596 227.384 79.5977 226.686 80.4134C225.976 81.2953 225.028 81.954 223.954 82.311C222.879 82.6679 221.725 82.708 220.629 82.4263L200.802 77.3772Z" fill="#D9614C"/>
<path d="M204.851 215.619L198.348 215.618L195.255 190.535L204.852 190.535L204.851 215.619Z" fill="#FFB8B8"/>
<path d="M255.481 212.803L249.051 213.775L242.243 189.436L250.672 188.002L255.481 212.803Z" fill="#FFB8B8"/>
<path d="M223.666 107.805L201.176 103.977L200.376 105.626C196.072 114.509 193.531 124.143 192.893 133.994C192.35 142.31 192.03 151.093 192.02 160.3C192.004 174.566 192.731 187.802 193.882 199.846L206.225 199.769C205.868 186.982 206.354 174.184 207.678 161.46C208.623 152.387 209.936 143.912 211.455 136.092C214.273 147.572 218.25 158.737 223.324 169.414C227.638 178.537 236.51 189.082 240.823 198.204C245.243 197.674 249.663 197.143 254.083 196.613C250.6 187.401 244.386 173.948 240.903 164.736C235.922 151.564 233.673 142.633 228.692 129.461C228.977 126.985 229.032 124.488 228.858 122.002C228.626 117.858 227.764 112.885 225.245 109.57L223.666 107.805Z" fill="#2F2E41"/>
<path d="M227.14 100.939C228.263 103.039 225.596 107.388 223.666 107.805L201.426 100.616L212.624 68.1631L218.258 69.1872L227.269 70.7055L230.465 73.611C231.27 74.3434 231.845 75.2938 232.12 76.3468C232.395 77.3998 232.359 78.51 232.015 79.5426L227.14 100.939Z" fill="#D9614C"/>
<path d="M211.83 88.3978L205.539 84.3823L197.273 92.6848L181.669 107.203C180.825 107.015 179.944 107.087 179.142 107.411C178.34 107.735 177.655 108.295 177.178 109.016C176.701 109.738 176.454 110.587 176.47 111.452C176.487 112.316 176.765 113.156 177.268 113.859C177.772 114.562 178.477 115.096 179.291 115.39C180.104 115.683 180.988 115.723 181.824 115.504C182.661 115.284 183.411 114.816 183.976 114.161C184.54 113.506 184.893 112.695 184.987 111.835L202.194 98.9361L211.83 88.3978Z" fill="#FFB8B8"/>
<path d="M208.036 94.6609L203.478 84.5004L203.578 84.3742C203.641 84.295 209.926 76.37 214.972 71.7269C215.519 71.1927 216.175 70.784 216.895 70.5295C217.616 70.275 218.383 70.1807 219.144 70.2532C220.213 70.3443 221.232 70.7454 222.077 71.4075C222.921 72.0695 223.554 72.9636 223.898 73.9802C224.292 75.0414 224.372 76.1936 224.129 77.2991C223.885 78.4046 223.329 79.4165 222.525 80.214L208.036 94.6609Z" fill="#D9614C"/>
<path d="M222.213 65.9946C227.675 65.9946 232.104 61.5658 232.104 56.1025C232.104 50.6393 227.675 46.2104 222.213 46.2104C216.75 46.2104 212.322 50.6393 212.322 56.1025C212.322 61.5658 216.75 65.9946 222.213 65.9946Z" fill="#FFB8B8"/>
<path d="M230.201 70.4364L230.163 70.4269L215.789 66.8314C215.291 66.7068 214.829 66.4672 214.441 66.1319C214.052 65.7965 213.747 65.3747 213.551 64.9003C213.354 64.4259 213.272 63.912 213.31 63.4C213.348 62.8879 213.505 62.3919 213.77 61.9517L214.245 61.1617C214.708 60.3903 214.971 59.515 215.01 58.6157C215.048 57.7164 214.861 56.8218 214.465 56.0136C213.784 54.6935 212.613 53.693 211.203 53.2269L211.155 53.204L210.853 53.0161C210.557 52.876 210.293 52.6755 210.078 52.4274C209.863 52.1793 209.703 51.8891 209.607 51.5753C209.507 51.2502 209.477 50.9077 209.518 50.5702C209.559 50.2326 209.67 49.9074 209.845 49.6155C211.113 47.4928 213.012 45.8185 215.277 44.8256C218.139 43.5936 221.361 43.4968 224.292 44.5548C224.487 44.3754 224.723 44.2473 224.98 44.182C225.237 44.1167 225.506 44.1163 225.764 44.1807C233.207 45.9836 233.82 50.9806 232.349 59.0019L234.09 66.0229C234.213 66.5186 234.227 67.0352 234.13 67.5368C234.033 68.0383 233.828 68.5127 233.53 68.9271C233.231 69.3415 232.846 69.6859 232.401 69.9363C231.956 70.1867 231.461 70.3372 230.952 70.3773L230.201 70.4364ZM224.212 44.6338L224.211 44.6347L224.212 44.6338ZM224.392 44.5898L224.393 44.5903L224.392 44.5898Z" fill="#2F2E41"/>
<path d="M206.435 222.121H202.724L202.062 218.617L200.365 222.121H190.523C190.051 222.121 189.591 221.97 189.211 221.69C188.831 221.411 188.551 221.017 188.41 220.567C188.27 220.116 188.277 219.633 188.431 219.187C188.585 218.741 188.877 218.355 189.265 218.087L197.125 212.658V209.116L205.393 209.609L206.435 222.121Z" fill="#2F2E41"/>
<path d="M256.515 222.121H252.804L252.142 218.617L250.445 222.121H240.603C240.131 222.121 239.672 221.97 239.292 221.69C238.911 221.411 238.631 221.017 238.49 220.567C238.35 220.116 238.357 219.633 238.511 219.187C238.665 218.741 238.957 218.355 239.346 218.087L247.206 212.658V209.116L255.473 209.609L256.515 222.121Z" fill="#2F2E41"/>
</svg>
